<?xml version="1.0" encoding="utf-8"?>
<!-- Generator: Adobe Illustrator 24.3.0, SVG Export Plug-In . SVG Version: 6.00 Build 0)  -->
<svg version="1.1" id="Livello_1" xmlns="http://www.w3.org/2000/svg" xmlns:xlink="http://www.w3.org/1999/xlink" x="0px" y="0px"
	 viewBox="0 0 700 700" style="enable-background:new 0 0 700 700;" xml:space="preserve">
<style type="text/css">
	.st0{fill:#FFFFFF;}
</style>
<g id="XMLID_1_">
	<g>
		<path class="st0" d="M625.2,93.6v50.6c0,4.8-7,8.6-15.5,8.6H90.3c-8.6,0-15.5-3.9-15.5-8.6V93.6c0-4.8,7-8.6,15.5-8.6h519.3
			C618.3,85,625.2,88.8,625.2,93.6z"/>
	</g>
</g>
<g id="XMLID_4_">
	<g>
		<path class="st0" d="M625.2,238.9v50.6c0,4.8-7,8.6-15.5,8.6H90.3c-8.6,0-15.5-3.9-15.5-8.6v-50.6c0-4.8,7-8.6,15.5-8.6h519.3
			C618.3,230.3,625.2,234.1,625.2,238.9z"/>
	</g>
</g>
<g id="XMLID_5_">
	<g>
		<path class="st0" d="M625.2,384.2v50.6c0,4.8-7,8.6-15.5,8.6H90.3c-8.6,0-15.5-3.9-15.5-8.6v-50.6c0-4.8,7-8.6,15.5-8.6h519.3
			C618.3,375.5,625.2,379.4,625.2,384.2z"/>
	</g>
</g>
</svg>
